<mxfile host="65bd71144e">
    <diagram id="P5W9ALmP14FbatzIrxCb" name="Page-1">
        <mxGraphModel dx="744" dy="310" grid="1" gridSize="10" guides="1" tooltips="1" connect="1" arrows="1" fold="1" page="1" pageScale="1" pageWidth="827" pageHeight="1169" math="0" shadow="0">
            <root>
                <mxCell id="0"/>
                <mxCell id="1" parent="0"/>
                <mxCell id="4" value="" style="edgeStyle=none;html=1;" edge="1" parent="1" source="2" target="3">
                    <mxGeometry relative="1" as="geometry"/>
                </mxCell>
                <mxCell id="2" value="应用&lt;br&gt;all in one&amp;nbsp;&lt;br&gt;前后端不分离" style="whiteSpace=wrap;html=1;" vertex="1" parent="1">
                    <mxGeometry x="50" y="40" width="120" height="50" as="geometry"/>
                </mxCell>
                <mxCell id="3" value="前后端分离&lt;br&gt;" style="whiteSpace=wrap;html=1;" vertex="1" parent="1">
                    <mxGeometry x="250" y="35" width="120" height="60" as="geometry"/>
                </mxCell>
                <mxCell id="5" value="SPA" style="text;html=1;align=center;verticalAlign=middle;resizable=0;points=[];autosize=1;strokeColor=none;fillColor=none;" vertex="1" parent="1">
                    <mxGeometry x="285" y="5" width="50" height="30" as="geometry"/>
                </mxCell>
                <mxCell id="6" value="fe" style="whiteSpace=wrap;html=1;" vertex="1" parent="1">
                    <mxGeometry x="250" y="75" width="40" height="20" as="geometry"/>
                </mxCell>
                <mxCell id="7" value="backend" style="whiteSpace=wrap;html=1;" vertex="1" parent="1">
                    <mxGeometry x="320" y="75" width="50" height="20" as="geometry"/>
                </mxCell>
                <mxCell id="8" value="本地开发体验比较比较差&lt;br&gt;本地启动比较慢&lt;br&gt;技术落后、与现代框架脱钩" style="text;html=1;align=center;verticalAlign=middle;resizable=0;points=[];autosize=1;strokeColor=none;fillColor=none;" vertex="1" parent="1">
                    <mxGeometry x="225" y="110" width="170" height="60" as="geometry"/>
                </mxCell>
                <mxCell id="9" value="" style="whiteSpace=wrap;html=1;" vertex="1" parent="1">
                    <mxGeometry x="440" y="30" width="180" height="80" as="geometry"/>
                </mxCell>
                <mxCell id="10" value="微服务" style="text;html=1;align=center;verticalAlign=middle;resizable=0;points=[];autosize=1;strokeColor=none;fillColor=none;" vertex="1" parent="1">
                    <mxGeometry x="490" y="5" width="60" height="30" as="geometry"/>
                </mxCell>
                <mxCell id="11" value="导购" style="whiteSpace=wrap;html=1;" vertex="1" parent="1">
                    <mxGeometry x="440" y="35" width="80" height="30" as="geometry"/>
                </mxCell>
                <mxCell id="12" value="交易" style="whiteSpace=wrap;html=1;" vertex="1" parent="1">
                    <mxGeometry x="530" y="35" width="80" height="30" as="geometry"/>
                </mxCell>
                <mxCell id="13" value="结算" style="whiteSpace=wrap;html=1;" vertex="1" parent="1">
                    <mxGeometry x="440" y="80" width="80" height="30" as="geometry"/>
                </mxCell>
                <mxCell id="14" value="逆向" style="whiteSpace=wrap;html=1;" vertex="1" parent="1">
                    <mxGeometry x="530" y="80" width="80" height="30" as="geometry"/>
                </mxCell>
                <mxCell id="15" value="微前端" style="text;html=1;align=center;verticalAlign=middle;resizable=0;points=[];autosize=1;strokeColor=none;fillColor=none;" vertex="1" parent="1">
                    <mxGeometry x="280" y="190" width="60" height="30" as="geometry"/>
                </mxCell>
                <mxCell id="16" value="" style="whiteSpace=wrap;html=1;" vertex="1" parent="1">
                    <mxGeometry x="200" y="220" width="220" height="110" as="geometry"/>
                </mxCell>
                <mxCell id="17" value="FE vue2" style="whiteSpace=wrap;html=1;" vertex="1" parent="1">
                    <mxGeometry x="200" y="220" width="80" height="30" as="geometry"/>
                </mxCell>
                <mxCell id="18" value="FE vue3" style="whiteSpace=wrap;html=1;" vertex="1" parent="1">
                    <mxGeometry x="340" y="220" width="80" height="30" as="geometry"/>
                </mxCell>
                <mxCell id="19" value="FE react15" style="whiteSpace=wrap;html=1;" vertex="1" parent="1">
                    <mxGeometry x="200" y="300" width="80" height="30" as="geometry"/>
                </mxCell>
                <mxCell id="20" value="FE react18" style="whiteSpace=wrap;html=1;" vertex="1" parent="1">
                    <mxGeometry x="340" y="300" width="80" height="30" as="geometry"/>
                </mxCell>
                <mxCell id="22" value="提升整体开发体验" style="text;html=1;align=center;verticalAlign=middle;resizable=0;points=[];autosize=1;strokeColor=none;fillColor=none;" vertex="1" parent="1">
                    <mxGeometry x="240" y="345" width="120" height="30" as="geometry"/>
                </mxCell>
                <mxCell id="23" value="微服务架构：由一个单体的应用，变成多个小型前端应用聚合为一的应用&lt;br&gt;微前端是一种架构风格" style="text;html=1;align=center;verticalAlign=middle;resizable=0;points=[];autosize=1;strokeColor=none;fillColor=none;" vertex="1" parent="1">
                    <mxGeometry x="80" y="375" width="410" height="40" as="geometry"/>
                </mxCell>
                <mxCell id="24" value="iframe" style="text;html=1;align=center;verticalAlign=middle;resizable=0;points=[];autosize=1;strokeColor=none;fillColor=none;" vertex="1" parent="1">
                    <mxGeometry x="100" y="435" width="60" height="30" as="geometry"/>
                </mxCell>
                <mxCell id="27" value="singlespa" style="text;html=1;align=center;verticalAlign=middle;resizable=0;points=[];autosize=1;strokeColor=none;fillColor=none;" vertex="1" parent="1">
                    <mxGeometry x="160" y="435" width="70" height="30" as="geometry"/>
                </mxCell>
                <mxCell id="28" value="qiankun" style="text;html=1;align=center;verticalAlign=middle;resizable=0;points=[];autosize=1;strokeColor=none;fillColor=none;" vertex="1" parent="1">
                    <mxGeometry x="250" y="435" width="70" height="30" as="geometry"/>
                </mxCell>
                <mxCell id="29" value="wujie" style="text;html=1;align=center;verticalAlign=middle;resizable=0;points=[];autosize=1;strokeColor=none;fillColor=none;" vertex="1" parent="1">
                    <mxGeometry x="350" y="435" width="50" height="30" as="geometry"/>
                </mxCell>
                <mxCell id="31" value="js隔离 window" style="text;html=1;align=center;verticalAlign=middle;resizable=0;points=[];autosize=1;strokeColor=none;fillColor=none;" vertex="1" parent="1">
                    <mxGeometry x="490" y="220" width="100" height="30" as="geometry"/>
                </mxCell>
                <mxCell id="32" value="css隔离" style="text;html=1;align=center;verticalAlign=middle;resizable=0;points=[];autosize=1;strokeColor=none;fillColor=none;" vertex="1" parent="1">
                    <mxGeometry x="495" y="250" width="70" height="30" as="geometry"/>
                </mxCell>
                <mxCell id="33" value="公共依赖 抽取" style="text;html=1;align=center;verticalAlign=middle;resizable=0;points=[];autosize=1;strokeColor=none;fillColor=none;" vertex="1" parent="1">
                    <mxGeometry x="480" y="280" width="100" height="30" as="geometry"/>
                </mxCell>
                <mxCell id="35" value="预加载" style="text;html=1;align=center;verticalAlign=middle;resizable=0;points=[];autosize=1;strokeColor=none;fillColor=none;" vertex="1" parent="1">
                    <mxGeometry x="500" y="310" width="60" height="30" as="geometry"/>
                </mxCell>
                <mxCell id="37" value="通信" style="text;html=1;align=center;verticalAlign=middle;resizable=0;points=[];autosize=1;strokeColor=none;fillColor=none;" vertex="1" parent="1">
                    <mxGeometry x="505" y="340" width="50" height="30" as="geometry"/>
                </mxCell>
                <mxCell id="38" value="……" style="text;html=1;align=center;verticalAlign=middle;resizable=0;points=[];autosize=1;strokeColor=none;fillColor=none;" vertex="1" parent="1">
                    <mxGeometry x="510" y="370" width="50" height="30" as="geometry"/>
                </mxCell>
                <mxCell id="39" value="xxx-微前端解决方案" style="text;html=1;align=center;verticalAlign=middle;resizable=0;points=[];autosize=1;strokeColor=none;fillColor=none;" vertex="1" parent="1">
                    <mxGeometry x="460" y="435" width="130" height="30" as="geometry"/>
                </mxCell>
                <mxCell id="40" value="" style="shape=singleArrow;whiteSpace=wrap;html=1;arrowWidth=0.4;arrowSize=0.4;rotation=90;" vertex="1" parent="1">
                    <mxGeometry x="512.5" y="400" width="35" height="15" as="geometry"/>
                </mxCell>
            </root>
        </mxGraphModel>
    </diagram>
    <diagram id="LndGD-OFCyUSKT39owJC" name="Page-2">
        <mxGraphModel dx="744" dy="310" grid="1" gridSize="10" guides="1" tooltips="1" connect="1" arrows="1" fold="1" page="1" pageScale="1" pageWidth="827" pageHeight="1169" math="0" shadow="0">
            <root>
                <mxCell id="0"/>
                <mxCell id="1" parent="0"/>
                <mxCell id="YBiUGCYF8BS4bJ9eaM8P-1" value="" style="whiteSpace=wrap;html=1;" vertex="1" parent="1">
                    <mxGeometry x="120" y="40" width="470" height="270" as="geometry"/>
                </mxCell>
                <mxCell id="YBiUGCYF8BS4bJ9eaM8P-2" value="aa.com" style="text;html=1;align=center;verticalAlign=middle;resizable=0;points=[];autosize=1;strokeColor=none;fillColor=none;" vertex="1" parent="1">
                    <mxGeometry x="300" y="40" width="60" height="30" as="geometry"/>
                </mxCell>
                <mxCell id="YBiUGCYF8BS4bJ9eaM8P-3" value="菜单" style="whiteSpace=wrap;html=1;" vertex="1" parent="1">
                    <mxGeometry x="130" y="40" width="120" height="260" as="geometry"/>
                </mxCell>
                <mxCell id="YBiUGCYF8BS4bJ9eaM8P-5" value="bb.com" style="shape=process;whiteSpace=wrap;html=1;backgroundOutline=1;" vertex="1" parent="1">
                    <mxGeometry x="260" y="100" width="320" height="200" as="geometry"/>
                </mxCell>
            </root>
        </mxGraphModel>
    </diagram>
    <diagram id="FTW3q3ch7w_rh1uWX4FH" name="Page-3">
        <mxGraphModel dx="744" dy="310" grid="1" gridSize="10" guides="1" tooltips="1" connect="1" arrows="1" fold="1" page="1" pageScale="1" pageWidth="827" pageHeight="1169" math="0" shadow="0">
            <root>
                <mxCell id="0"/>
                <mxCell id="1" parent="0"/>
                <mxCell id="1SPr1nkOrxoUm3XwCjQy-5" style="edgeStyle=none;html=1;" edge="1" parent="1" source="1SPr1nkOrxoUm3XwCjQy-1" target="1SPr1nkOrxoUm3XwCjQy-2">
                    <mxGeometry relative="1" as="geometry"/>
                </mxCell>
                <mxCell id="1SPr1nkOrxoUm3XwCjQy-1" value="注册所有APP" style="whiteSpace=wrap;html=1;" vertex="1" parent="1">
                    <mxGeometry x="290" y="10" width="100" height="30" as="geometry"/>
                </mxCell>
                <mxCell id="1SPr1nkOrxoUm3XwCjQy-8" value="" style="edgeStyle=none;html=1;" edge="1" parent="1" source="1SPr1nkOrxoUm3XwCjQy-2" target="1SPr1nkOrxoUm3XwCjQy-7">
                    <mxGeometry relative="1" as="geometry"/>
                </mxCell>
                <mxCell id="1SPr1nkOrxoUm3XwCjQy-2" value="等待" style="ellipse;whiteSpace=wrap;html=1;" vertex="1" parent="1">
                    <mxGeometry x="305" y="80" width="70" height="60" as="geometry"/>
                </mxCell>
                <mxCell id="1SPr1nkOrxoUm3XwCjQy-4" style="edgeStyle=none;html=1;" edge="1" parent="1" source="1SPr1nkOrxoUm3XwCjQy-3">
                    <mxGeometry relative="1" as="geometry">
                        <mxPoint x="380" y="110" as="targetPoint"/>
                    </mxGeometry>
                </mxCell>
                <mxCell id="1SPr1nkOrxoUm3XwCjQy-3" value="url变化" style="whiteSpace=wrap;html=1;" vertex="1" parent="1">
                    <mxGeometry x="470" y="70" width="120" height="60" as="geometry"/>
                </mxCell>
                <mxCell id="1SPr1nkOrxoUm3XwCjQy-12" style="edgeStyle=none;html=1;" edge="1" parent="1" source="1SPr1nkOrxoUm3XwCjQy-7" target="1SPr1nkOrxoUm3XwCjQy-10">
                    <mxGeometry relative="1" as="geometry"/>
                </mxCell>
                <mxCell id="1SPr1nkOrxoUm3XwCjQy-7" value="哪个app激活？" style="rhombus;whiteSpace=wrap;html=1;" vertex="1" parent="1">
                    <mxGeometry x="275" y="170" width="130" height="80" as="geometry"/>
                </mxCell>
                <mxCell id="1SPr1nkOrxoUm3XwCjQy-13" style="edgeStyle=none;html=1;" edge="1" parent="1" source="1SPr1nkOrxoUm3XwCjQy-10" target="1SPr1nkOrxoUm3XwCjQy-11">
                    <mxGeometry relative="1" as="geometry"/>
                </mxCell>
                <mxCell id="1SPr1nkOrxoUm3XwCjQy-10" value="找到对应的子app" style="whiteSpace=wrap;html=1;" vertex="1" parent="1">
                    <mxGeometry x="290" y="270" width="120" height="30" as="geometry"/>
                </mxCell>
                <mxCell id="1SPr1nkOrxoUm3XwCjQy-11" value="开始执行生命周期流程&lt;br&gt;bootstrap =》 mount =》 unmount" style="whiteSpace=wrap;html=1;" vertex="1" parent="1">
                    <mxGeometry x="275" y="350" width="120" height="60" as="geometry"/>
                </mxCell>
            </root>
        </mxGraphModel>
    </diagram>
    <diagram id="yoerDXqHl6EjYISk38Fj" name="Page-4">
        <mxGraphModel dx="1353" dy="564" grid="1" gridSize="10" guides="1" tooltips="1" connect="1" arrows="1" fold="1" page="1" pageScale="1" pageWidth="827" pageHeight="1169" math="0" shadow="0">
            <root>
                <mxCell id="0"/>
                <mxCell id="1" parent="0"/>
                <mxCell id="r4JmnmwSuR79pLpREa6m-1" value="主应用" style="whiteSpace=wrap;html=1;" vertex="1" parent="1">
                    <mxGeometry x="50" width="120" height="60" as="geometry"/>
                </mxCell>
                <mxCell id="r4JmnmwSuR79pLpREa6m-3" value="注册观察者A&lt;br&gt;onGlobalStateChange" style="ellipse;whiteSpace=wrap;html=1;" vertex="1" parent="1">
                    <mxGeometry x="20" y="120" width="190" height="80" as="geometry"/>
                </mxCell>
                <mxCell id="r4JmnmwSuR79pLpREa6m-4" value="子应用" style="whiteSpace=wrap;html=1;" vertex="1" parent="1">
                    <mxGeometry x="480" y="10" width="120" height="60" as="geometry"/>
                </mxCell>
                <mxCell id="r4JmnmwSuR79pLpREa6m-5" value="子应用" style="whiteSpace=wrap;html=1;" vertex="1" parent="1">
                    <mxGeometry x="630" y="10" width="120" height="60" as="geometry"/>
                </mxCell>
                <mxCell id="r4JmnmwSuR79pLpREa6m-7" value="注册观察者B&lt;br&gt;onGlobalStateChange" style="ellipse;whiteSpace=wrap;html=1;" vertex="1" parent="1">
                    <mxGeometry x="430" y="130" width="190" height="80" as="geometry"/>
                </mxCell>
                <mxCell id="r4JmnmwSuR79pLpREa6m-8" value="注册观察者C&lt;br&gt;onGlobalStateChange" style="ellipse;whiteSpace=wrap;html=1;" vertex="1" parent="1">
                    <mxGeometry x="640" y="130" width="187" height="80" as="geometry"/>
                </mxCell>
                <mxCell id="r4JmnmwSuR79pLpREa6m-15" style="edgeStyle=none;html=1;" edge="1" parent="1" source="r4JmnmwSuR79pLpREa6m-9" target="r4JmnmwSuR79pLpREa6m-3">
                    <mxGeometry relative="1" as="geometry"/>
                </mxCell>
                <mxCell id="r4JmnmwSuR79pLpREa6m-16" style="edgeStyle=none;html=1;" edge="1" parent="1" source="r4JmnmwSuR79pLpREa6m-9" target="r4JmnmwSuR79pLpREa6m-7">
                    <mxGeometry relative="1" as="geometry"/>
                </mxCell>
                <mxCell id="r4JmnmwSuR79pLpREa6m-17" style="edgeStyle=none;html=1;" edge="1" parent="1" source="r4JmnmwSuR79pLpREa6m-9" target="r4JmnmwSuR79pLpREa6m-8">
                    <mxGeometry relative="1" as="geometry"/>
                </mxCell>
                <mxCell id="r4JmnmwSuR79pLpREa6m-9" value="观察者池子&lt;br&gt;ABC" style="whiteSpace=wrap;html=1;" vertex="1" parent="1">
                    <mxGeometry x="250" y="260" width="120" height="40" as="geometry"/>
                </mxCell>
                <mxCell id="r4JmnmwSuR79pLpREa6m-13" style="edgeStyle=none;html=1;entryX=0.5;entryY=1;entryDx=0;entryDy=0;" edge="1" parent="1" source="r4JmnmwSuR79pLpREa6m-10" target="r4JmnmwSuR79pLpREa6m-9">
                    <mxGeometry relative="1" as="geometry"/>
                </mxCell>
                <mxCell id="r4JmnmwSuR79pLpREa6m-14" value="notify" style="edgeLabel;html=1;align=center;verticalAlign=middle;resizable=0;points=[];" vertex="1" connectable="0" parent="r4JmnmwSuR79pLpREa6m-13">
                    <mxGeometry x="-0.0278" relative="1" as="geometry">
                        <mxPoint as="offset"/>
                    </mxGeometry>
                </mxCell>
                <mxCell id="r4JmnmwSuR79pLpREa6m-10" value="全局状态池&lt;br&gt;globalState" style="whiteSpace=wrap;html=1;" vertex="1" parent="1">
                    <mxGeometry x="240" y="380" width="120" height="60" as="geometry"/>
                </mxCell>
                <mxCell id="r4JmnmwSuR79pLpREa6m-12" style="edgeStyle=none;html=1;entryX=0.5;entryY=1;entryDx=0;entryDy=0;" edge="1" parent="1" source="r4JmnmwSuR79pLpREa6m-11" target="r4JmnmwSuR79pLpREa6m-10">
                    <mxGeometry relative="1" as="geometry"/>
                </mxCell>
                <mxCell id="r4JmnmwSuR79pLpREa6m-11" value="主应用/子应用&lt;br&gt;更新state&lt;br&gt;setGlobalState" style="whiteSpace=wrap;html=1;" vertex="1" parent="1">
                    <mxGeometry x="240" y="520" width="120" height="60" as="geometry"/>
                </mxCell>
            </root>
        </mxGraphModel>
    </diagram>
    <diagram id="Okj7u4A5TH3n_bK2b4P6" name="Page-5">
        <mxGraphModel dx="701" dy="388" grid="1" gridSize="10" guides="1" tooltips="1" connect="1" arrows="1" fold="1" page="1" pageScale="1" pageWidth="827" pageHeight="1169" math="0" shadow="0">
            <root>
                <mxCell id="0"/>
                <mxCell id="1" parent="0"/>
                <mxCell id="G8w07dEaMeVd3sbzOOYo-3" value="" style="whiteSpace=wrap;html=1;fontStyle=1" vertex="1" parent="1">
                    <mxGeometry x="150" y="50" width="370" height="200" as="geometry"/>
                </mxCell>
                <mxCell id="G8w07dEaMeVd3sbzOOYo-4" value="应用A：http://hostA/pathA/#hashA" style="text;html=1;align=center;verticalAlign=middle;resizable=0;points=[];autosize=1;strokeColor=none;fillColor=none;" vertex="1" parent="1">
                    <mxGeometry x="185" y="25" width="210" height="30" as="geometry"/>
                </mxCell>
                <mxCell id="G8w07dEaMeVd3sbzOOYo-22" style="edgeStyle=none;html=1;entryX=0;entryY=0.5;entryDx=0;entryDy=0;" edge="1" parent="1" source="G8w07dEaMeVd3sbzOOYo-5" target="G8w07dEaMeVd3sbzOOYo-21">
                    <mxGeometry relative="1" as="geometry"/>
                </mxCell>
                <mxCell id="G8w07dEaMeVd3sbzOOYo-5" value="Dom&lt;br&gt;Tree" style="whiteSpace=wrap;html=1;" vertex="1" parent="1">
                    <mxGeometry x="50" y="60" width="70" height="190" as="geometry"/>
                </mxCell>
                <mxCell id="G8w07dEaMeVd3sbzOOYo-6" value="window" style="whiteSpace=wrap;html=1;" vertex="1" parent="1">
                    <mxGeometry x="530" y="55" width="80" height="190" as="geometry"/>
                </mxCell>
                <mxCell id="G8w07dEaMeVd3sbzOOYo-7" value="" style="whiteSpace=wrap;html=1;" vertex="1" parent="1">
                    <mxGeometry x="190" y="192.5" width="290" height="45" as="geometry"/>
                </mxCell>
                <mxCell id="G8w07dEaMeVd3sbzOOYo-8" value="应用B" style="text;html=1;align=center;verticalAlign=middle;resizable=0;points=[];autosize=1;strokeColor=none;fillColor=none;" vertex="1" parent="1">
                    <mxGeometry x="170" y="200" width="60" height="30" as="geometry"/>
                </mxCell>
                <mxCell id="G8w07dEaMeVd3sbzOOYo-10" value="http://hostB/patchB/#hashB" style="text;html=1;align=center;verticalAlign=middle;resizable=0;points=[];autosize=1;strokeColor=none;fillColor=none;" vertex="1" parent="1">
                    <mxGeometry x="244" y="250" width="170" height="30" as="geometry"/>
                </mxCell>
                <mxCell id="G8w07dEaMeVd3sbzOOYo-18" value="写入" style="edgeStyle=none;html=1;" edge="1" parent="1" source="G8w07dEaMeVd3sbzOOYo-12" target="G8w07dEaMeVd3sbzOOYo-17">
                    <mxGeometry relative="1" as="geometry"/>
                </mxCell>
                <mxCell id="G8w07dEaMeVd3sbzOOYo-12" value="html(dom css iframe)" style="text;html=1;align=center;verticalAlign=middle;resizable=0;points=[];autosize=1;strokeColor=none;fillColor=none;" vertex="1" parent="1">
                    <mxGeometry x="220" y="200" width="140" height="30" as="geometry"/>
                </mxCell>
                <mxCell id="G8w07dEaMeVd3sbzOOYo-16" value="运行" style="edgeStyle=none;html=1;entryX=0.542;entryY=-0.067;entryDx=0;entryDy=0;entryPerimeter=0;" edge="1" parent="1" source="G8w07dEaMeVd3sbzOOYo-13" target="G8w07dEaMeVd3sbzOOYo-15">
                    <mxGeometry relative="1" as="geometry"/>
                </mxCell>
                <mxCell id="G8w07dEaMeVd3sbzOOYo-13" value="js" style="text;html=1;align=center;verticalAlign=middle;resizable=0;points=[];autosize=1;strokeColor=none;fillColor=none;" vertex="1" parent="1">
                    <mxGeometry x="420" y="200" width="30" height="30" as="geometry"/>
                </mxCell>
                <mxCell id="G8w07dEaMeVd3sbzOOYo-19" style="edgeStyle=none;html=1;entryX=1;entryY=0.5;entryDx=0;entryDy=0;" edge="1" parent="1" source="G8w07dEaMeVd3sbzOOYo-14" target="G8w07dEaMeVd3sbzOOYo-17">
                    <mxGeometry relative="1" as="geometry"/>
                </mxCell>
                <mxCell id="G8w07dEaMeVd3sbzOOYo-20" value="劫持 document location" style="edgeLabel;html=1;align=center;verticalAlign=middle;resizable=0;points=[];" vertex="1" connectable="0" parent="G8w07dEaMeVd3sbzOOYo-19">
                    <mxGeometry x="0.0059" y="-2" relative="1" as="geometry">
                        <mxPoint x="-2" y="-28" as="offset"/>
                    </mxGeometry>
                </mxCell>
                <mxCell id="G8w07dEaMeVd3sbzOOYo-14" value="iframe" style="whiteSpace=wrap;html=1;" vertex="1" parent="1">
                    <mxGeometry x="375" y="100" width="120" height="40" as="geometry"/>
                </mxCell>
                <mxCell id="G8w07dEaMeVd3sbzOOYo-15" value="http://hostA/patchB/#/hashB" style="text;html=1;align=center;verticalAlign=middle;resizable=0;points=[];autosize=1;strokeColor=none;fillColor=none;" vertex="1" parent="1">
                    <mxGeometry x="350" y="135" width="170" height="30" as="geometry"/>
                </mxCell>
                <mxCell id="G8w07dEaMeVd3sbzOOYo-17" value="shadowRoot" style="whiteSpace=wrap;html=1;" vertex="1" parent="1">
                    <mxGeometry x="170" y="110" width="100" height="40" as="geometry"/>
                </mxCell>
                <mxCell id="G8w07dEaMeVd3sbzOOYo-23" style="edgeStyle=none;html=1;entryX=0.5;entryY=0;entryDx=0;entryDy=0;" edge="1" parent="1" source="G8w07dEaMeVd3sbzOOYo-21" target="G8w07dEaMeVd3sbzOOYo-17">
                    <mxGeometry relative="1" as="geometry"/>
                </mxCell>
                <mxCell id="G8w07dEaMeVd3sbzOOYo-25" style="edgeStyle=none;html=1;entryX=0.5;entryY=0;entryDx=0;entryDy=0;" edge="1" parent="1" source="G8w07dEaMeVd3sbzOOYo-21" target="G8w07dEaMeVd3sbzOOYo-24">
                    <mxGeometry relative="1" as="geometry"/>
                </mxCell>
                <mxCell id="G8w07dEaMeVd3sbzOOYo-21" value="容器" style="whiteSpace=wrap;html=1;" vertex="1" parent="1">
                    <mxGeometry x="154" y="55" width="76" height="15" as="geometry"/>
                </mxCell>
                <mxCell id="G8w07dEaMeVd3sbzOOYo-24" value="子应用C" style="whiteSpace=wrap;html=1;" vertex="1" parent="1">
                    <mxGeometry x="124" y="300" width="120" height="60" as="geometry"/>
                </mxCell>
                <mxCell id="G8w07dEaMeVd3sbzOOYo-26" value="解决了白屏问题" style="text;html=1;align=center;verticalAlign=middle;resizable=0;points=[];autosize=1;strokeColor=none;fillColor=none;" vertex="1" parent="1">
                    <mxGeometry x="610" y="170" width="110" height="30" as="geometry"/>
                </mxCell>
                <mxCell id="G8w07dEaMeVd3sbzOOYo-27" value="弹框问题" style="text;html=1;align=center;verticalAlign=middle;resizable=0;points=[];autosize=1;strokeColor=none;fillColor=none;" vertex="1" parent="1">
                    <mxGeometry x="630" y="90" width="70" height="30" as="geometry"/>
                </mxCell>
                <mxCell id="G8w07dEaMeVd3sbzOOYo-28" value="路由状态" style="text;html=1;align=center;verticalAlign=middle;resizable=0;points=[];autosize=1;strokeColor=none;fillColor=none;" vertex="1" parent="1">
                    <mxGeometry x="630" y="130" width="70" height="30" as="geometry"/>
                </mxCell>
                <mxCell id="G8w07dEaMeVd3sbzOOYo-29" value="预加载：requestidlecallback 其他子应用资源" style="text;html=1;align=center;verticalAlign=middle;resizable=0;points=[];autosize=1;strokeColor=none;fillColor=none;" vertex="1" parent="1">
                    <mxGeometry x="284" y="300" width="260" height="30" as="geometry"/>
                </mxCell>
                <mxCell id="G8w07dEaMeVd3sbzOOYo-30" value="通信机制：&lt;br&gt;1. props注入&lt;br&gt;2. eventbus 通信机制&lt;br&gt;&lt;br&gt;体积：27kb" style="text;html=1;align=center;verticalAlign=middle;resizable=0;points=[];autosize=1;strokeColor=none;fillColor=none;" vertex="1" parent="1">
                    <mxGeometry x="265" y="315" width="140" height="90" as="geometry"/>
                </mxCell>
                <mxCell id="G8w07dEaMeVd3sbzOOYo-31" value="wejie-core" style="whiteSpace=wrap;html=1;" vertex="1" parent="1">
                    <mxGeometry x="135" y="660" width="120" height="60" as="geometry"/>
                </mxCell>
                <mxCell id="G8w07dEaMeVd3sbzOOYo-32" value="wejie-vue2" style="whiteSpace=wrap;html=1;" vertex="1" parent="1">
                    <mxGeometry x="100" y="555" width="120" height="60" as="geometry"/>
                </mxCell>
                <mxCell id="G8w07dEaMeVd3sbzOOYo-33" value="应用层" style="text;html=1;align=center;verticalAlign=middle;resizable=0;points=[];autosize=1;strokeColor=none;fillColor=none;" vertex="1" parent="1">
                    <mxGeometry x="30" y="575" width="60" height="30" as="geometry"/>
                </mxCell>
                <mxCell id="G8w07dEaMeVd3sbzOOYo-34" value="wejie-vue3" style="whiteSpace=wrap;html=1;" vertex="1" parent="1">
                    <mxGeometry x="255" y="555" width="120" height="60" as="geometry"/>
                </mxCell>
                <mxCell id="G8w07dEaMeVd3sbzOOYo-36" value="wejie-react" style="whiteSpace=wrap;html=1;" vertex="1" parent="1">
                    <mxGeometry x="400" y="555" width="120" height="60" as="geometry"/>
                </mxCell>
                <mxCell id="G8w07dEaMeVd3sbzOOYo-37" value="核心层" style="text;html=1;align=center;verticalAlign=middle;resizable=0;points=[];autosize=1;strokeColor=none;fillColor=none;" vertex="1" parent="1">
                    <mxGeometry x="40" y="675" width="60" height="30" as="geometry"/>
                </mxCell>
            </root>
        </mxGraphModel>
    </diagram>
</mxfile>